<svg width="306" height="50" viewBox="0 0 306 50" fill="none" xmlns="http://www.w3.org/2000/svg">
<rect width="306" height="50" rx="8" fill="#203562"/>
<mask id="mask0_1_111" style="mask-type:alpha" maskUnits="userSpaceOnUse" x="16" y="8" width="32" height="32">
<rect x="16" y="8" width="32" height="32" fill="#D9D9D9"/>
</mask>
<g mask="url(#mask0_1_111)">
<path d="M26.6666 32H37.3333V29.3333H26.6666V32ZM26.6666 26.6667H37.3333V24H26.6666V26.6667ZM24 37.3333C23.2666 37.3333 22.6389 37.0722 22.1166 36.55C21.5944 36.0278 21.3333 35.4 21.3333 34.6667V13.3333C21.3333 12.6 21.5944 11.9722 22.1166 11.45C22.6389 10.9278 23.2666 10.6667 24 10.6667H34.6666L42.6666 18.6667V34.6667C42.6666 35.4 42.4055 36.0278 41.8833 36.55C41.3611 37.0722 40.7333 37.3333 40 37.3333H24ZM33.3333 20V13.3333H24V34.6667H40V20H33.3333Z" fill="#F5F5F5"/>
</g>
<path d="M66.52 33V16.2H68.488L79.6 30H78.568V16.2H80.968V33H79L67.888 19.2H68.92V33H66.52ZM91.1086 33.144C89.8286 33.144 88.6926 32.864 87.7006 32.304C86.7086 31.744 85.9246 30.976 85.3486 30C84.7726 29.008 84.4846 27.888 84.4846 26.64C84.4846 25.376 84.7726 24.256 85.3486 23.28C85.9246 22.304 86.7086 21.544 87.7006 21C88.6926 20.44 89.8286 20.16 91.1086 20.16C92.3726 20.16 93.5006 20.44 94.4926 21C95.5006 21.544 96.2846 22.304 96.8446 23.28C97.4206 24.24 97.7086 25.36 97.7086 26.64C97.7086 27.904 97.4206 29.024 96.8446 30C96.2846 30.976 95.5006 31.744 94.4926 32.304C93.5006 32.864 92.3726 33.144 91.1086 33.144ZM91.1086 31.128C91.9246 31.128 92.6526 30.944 93.2926 30.576C93.9486 30.208 94.4606 29.688 94.8286 29.016C95.1966 28.328 95.3806 27.536 95.3806 26.64C95.3806 25.728 95.1966 24.944 94.8286 24.288C94.4606 23.616 93.9486 23.096 93.2926 22.728C92.6526 22.36 91.9246 22.176 91.1086 22.176C90.2926 22.176 89.5646 22.36 88.9246 22.728C88.2846 23.096 87.7726 23.616 87.3886 24.288C87.0046 24.944 86.8126 25.728 86.8126 26.64C86.8126 27.536 87.0046 28.328 87.3886 29.016C87.7726 29.688 88.2846 30.208 88.9246 30.576C89.5646 30.944 90.2926 31.128 91.1086 31.128ZM105.263 33.144C103.983 33.144 102.991 32.8 102.287 32.112C101.583 31.424 101.231 30.44 101.231 29.16V17.496H103.535V29.064C103.535 29.752 103.703 30.28 104.039 30.648C104.391 31.016 104.887 31.2 105.527 31.2C106.247 31.2 106.847 31 107.327 30.6L108.047 32.256C107.695 32.56 107.271 32.784 106.775 32.928C106.295 33.072 105.791 33.144 105.263 33.144ZM99.0709 22.176V20.28H107.183V22.176H99.0709ZM116.075 33.144C114.715 33.144 113.515 32.864 112.475 32.304C111.451 31.744 110.651 30.976 110.075 30C109.515 29.024 109.235 27.904 109.235 26.64C109.235 25.376 109.507 24.256 110.051 23.28C110.611 22.304 111.371 21.544 112.331 21C113.307 20.44 114.403 20.16 115.619 20.16C116.851 20.16 117.939 20.432 118.883 20.976C119.827 21.52 120.563 22.288 121.091 23.28C121.635 24.256 121.907 25.4 121.907 26.712C121.907 26.808 121.899 26.92 121.883 27.048C121.883 27.176 121.875 27.296 121.859 27.408H111.035V25.752H120.659L119.723 26.328C119.739 25.512 119.571 24.784 119.219 24.144C118.867 23.504 118.379 23.008 117.755 22.656C117.147 22.288 116.435 22.104 115.619 22.104C114.819 22.104 114.107 22.288 113.483 22.656C112.859 23.008 112.371 23.512 112.019 24.168C111.667 24.808 111.491 25.544 111.491 26.376V26.76C111.491 27.608 111.683 28.368 112.067 29.04C112.467 29.696 113.019 30.208 113.723 30.576C114.427 30.944 115.235 31.128 116.147 31.128C116.899 31.128 117.579 31 118.187 30.744C118.811 30.488 119.355 30.104 119.819 29.592L121.091 31.08C120.515 31.752 119.795 32.264 118.931 32.616C118.083 32.968 117.131 33.144 116.075 33.144ZM128.754 33.144C127.698 33.144 126.69 33 125.73 32.712C124.786 32.424 124.042 32.072 123.498 31.656L124.458 29.832C125.002 30.2 125.674 30.512 126.474 30.768C127.274 31.024 128.09 31.152 128.922 31.152C129.994 31.152 130.762 31 131.226 30.696C131.706 30.392 131.946 29.968 131.946 29.424C131.946 29.024 131.802 28.712 131.514 28.488C131.226 28.264 130.842 28.096 130.362 27.984C129.898 27.872 129.378 27.776 128.802 27.696C128.226 27.6 127.65 27.488 127.074 27.36C126.498 27.216 125.97 27.024 125.49 26.784C125.01 26.528 124.626 26.184 124.338 25.752C124.05 25.304 123.906 24.712 123.906 23.976C123.906 23.208 124.122 22.536 124.554 21.96C124.986 21.384 125.594 20.944 126.378 20.64C127.178 20.32 128.122 20.16 129.21 20.16C130.042 20.16 130.882 20.264 131.73 20.472C132.594 20.664 133.298 20.944 133.842 21.312L132.858 23.136C132.282 22.752 131.682 22.488 131.058 22.344C130.434 22.2 129.81 22.128 129.186 22.128C128.178 22.128 127.426 22.296 126.93 22.632C126.434 22.952 126.186 23.368 126.186 23.88C126.186 24.312 126.33 24.648 126.618 24.888C126.922 25.112 127.306 25.288 127.77 25.416C128.25 25.544 128.778 25.656 129.354 25.752C129.93 25.832 130.506 25.944 131.082 26.088C131.658 26.216 132.178 26.4 132.642 26.64C133.122 26.88 133.506 27.216 133.794 27.648C134.098 28.08 134.25 28.656 134.25 29.376C134.25 30.144 134.026 30.808 133.578 31.368C133.13 31.928 132.498 32.368 131.682 32.688C130.866 32.992 129.89 33.144 128.754 33.144Z" fill="#F5F5F5"/>
</svg>
