<svg width="306" height="50" viewBox="0 0 306 50" fill="none" xmlns="http://www.w3.org/2000/svg">
<mask id="mask0_1_118" style="mask-type:alpha" maskUnits="userSpaceOnUse" x="0" y="8" width="32" height="32">
<rect y="8" width="32" height="32" fill="#D9D9D9"/>
</mask>
<g mask="url(#mask0_1_118)">
<path d="M10.6667 32H21.3333V29.3333H10.6667V32ZM10.6667 26.6667H21.3333V24H10.6667V26.6667ZM8.00001 37.3333C7.26668 37.3333 6.6389 37.0722 6.11668 36.55C5.59445 36.0278 5.33334 35.4 5.33334 34.6667V13.3333C5.33334 12.6 5.59445 11.9722 6.11668 11.45C6.6389 10.9278 7.26668 10.6667 8.00001 10.6667H18.6667L26.6667 18.6667V34.6667C26.6667 35.4 26.4056 36.0278 25.8833 36.55C25.3611 37.0722 24.7333 37.3333 24 37.3333H8.00001ZM17.3333 20V13.3333H8.00001V34.6667H24V20H17.3333Z" fill="#203562"/>
</g>
<path d="M50.256 33V16.2H52.824L60.168 28.464H58.824L66.048 16.2H68.616L68.64 33H65.688L65.664 20.832H66.288L60.144 31.08H58.752L52.512 20.832H53.232V33H50.256ZM73.9459 37.824C73.3219 37.824 72.6979 37.72 72.0739 37.512C71.4499 37.304 70.9299 37.016 70.5139 36.648L71.7139 34.44C72.0179 34.712 72.3619 34.928 72.7459 35.088C73.1299 35.248 73.5219 35.328 73.9219 35.328C74.4659 35.328 74.9059 35.192 75.2419 34.92C75.5779 34.648 75.8899 34.192 76.1779 33.552L76.9219 31.872L77.1619 31.512L82.0099 20.184H84.8899L78.8899 34.032C78.4899 34.992 78.0419 35.752 77.5459 36.312C77.0659 36.872 76.5219 37.264 75.9139 37.488C75.3219 37.712 74.6659 37.824 73.9459 37.824ZM76.5859 33.456L70.8019 20.184H73.9219L78.6259 31.248L76.5859 33.456ZM93.6857 33V16.2H96.2537L106.79 29.136H105.518V16.2H108.614V33H106.046L95.5097 20.064H96.7817V33H93.6857ZM118.587 33.168C117.275 33.168 116.107 32.888 115.083 32.328C114.059 31.752 113.251 30.968 112.659 29.976C112.067 28.984 111.771 27.856 111.771 26.592C111.771 25.312 112.067 24.184 112.659 23.208C113.251 22.216 114.059 21.44 115.083 20.88C116.107 20.32 117.275 20.04 118.587 20.04C119.915 20.04 121.091 20.32 122.115 20.88C123.155 21.44 123.963 22.208 124.539 23.184C125.131 24.16 125.427 25.296 125.427 26.592C125.427 27.856 125.131 28.984 124.539 29.976C123.963 30.968 123.155 31.752 122.115 32.328C121.091 32.888 119.915 33.168 118.587 33.168ZM118.587 30.6C119.323 30.6 119.979 30.44 120.555 30.12C121.131 29.8 121.579 29.336 121.899 28.728C122.235 28.12 122.403 27.408 122.403 26.592C122.403 25.76 122.235 25.048 121.899 24.456C121.579 23.848 121.131 23.384 120.555 23.064C119.979 22.744 119.331 22.584 118.611 22.584C117.875 22.584 117.219 22.744 116.643 23.064C116.083 23.384 115.635 23.848 115.299 24.456C114.963 25.048 114.795 25.76 114.795 26.592C114.795 27.408 114.963 28.12 115.299 28.728C115.635 29.336 116.083 29.8 116.643 30.12C117.219 30.44 117.867 30.6 118.587 30.6ZM133.12 33.168C131.712 33.168 130.624 32.808 129.856 32.088C129.088 31.352 128.704 30.272 128.704 28.848V17.352H131.704V28.776C131.704 29.384 131.856 29.856 132.16 30.192C132.48 30.528 132.92 30.696 133.48 30.696C134.152 30.696 134.712 30.52 135.16 30.168L136 32.304C135.648 32.592 135.216 32.808 134.704 32.952C134.192 33.096 133.664 33.168 133.12 33.168ZM126.592 22.68V20.28H135.136V22.68H126.592ZM144.07 33.168C142.646 33.168 141.398 32.888 140.326 32.328C139.27 31.752 138.446 30.968 137.854 29.976C137.278 28.984 136.99 27.856 136.99 26.592C136.99 25.312 137.27 24.184 137.83 23.208C138.406 22.216 139.19 21.44 140.182 20.88C141.19 20.32 142.334 20.04 143.614 20.04C144.862 20.04 145.974 20.312 146.95 20.856C147.926 21.4 148.694 22.168 149.254 23.16C149.814 24.152 150.094 25.32 150.094 26.664C150.094 26.792 150.086 26.936 150.07 27.096C150.07 27.256 150.062 27.408 150.046 27.552H139.366V25.56H148.462L147.286 26.184C147.302 25.448 147.15 24.8 146.83 24.24C146.51 23.68 146.07 23.24 145.51 22.92C144.966 22.6 144.334 22.44 143.614 22.44C142.878 22.44 142.23 22.6 141.67 22.92C141.126 23.24 140.694 23.688 140.374 24.264C140.07 24.824 139.918 25.488 139.918 26.256V26.736C139.918 27.504 140.094 28.184 140.446 28.776C140.798 29.368 141.294 29.824 141.934 30.144C142.574 30.464 143.31 30.624 144.142 30.624C144.862 30.624 145.51 30.512 146.086 30.288C146.662 30.064 147.174 29.712 147.622 29.232L149.23 31.08C148.654 31.752 147.926 32.272 147.046 32.64C146.182 32.992 145.19 33.168 144.07 33.168ZM156.936 33.168C155.864 33.168 154.832 33.032 153.84 32.76C152.864 32.472 152.088 32.128 151.512 31.728L152.664 29.448C153.24 29.816 153.928 30.12 154.728 30.36C155.528 30.6 156.328 30.72 157.128 30.72C158.072 30.72 158.752 30.592 159.168 30.336C159.6 30.08 159.816 29.736 159.816 29.304C159.816 28.952 159.672 28.688 159.384 28.512C159.096 28.32 158.72 28.176 158.256 28.08C157.792 27.984 157.272 27.896 156.696 27.816C156.136 27.736 155.568 27.632 154.992 27.504C154.432 27.36 153.92 27.16 153.456 26.904C152.992 26.632 152.616 26.272 152.328 25.824C152.04 25.376 151.896 24.784 151.896 24.048C151.896 23.232 152.128 22.528 152.592 21.936C153.056 21.328 153.704 20.864 154.536 20.544C155.384 20.208 156.384 20.04 157.536 20.04C158.4 20.04 159.272 20.136 160.152 20.328C161.032 20.52 161.76 20.792 162.336 21.144L161.184 23.424C160.576 23.056 159.96 22.808 159.336 22.68C158.728 22.536 158.12 22.464 157.512 22.464C156.6 22.464 155.92 22.6 155.472 22.872C155.04 23.144 154.824 23.488 154.824 23.904C154.824 24.288 154.968 24.576 155.256 24.768C155.544 24.96 155.92 25.112 156.384 25.224C156.848 25.336 157.36 25.432 157.92 25.512C158.496 25.576 159.064 25.68 159.624 25.824C160.184 25.968 160.696 26.168 161.16 26.424C161.64 26.664 162.024 27.008 162.312 27.456C162.6 27.904 162.744 28.488 162.744 29.208C162.744 30.008 162.504 30.704 162.024 31.296C161.56 31.888 160.896 32.352 160.032 32.688C159.168 33.008 158.136 33.168 156.936 33.168Z" fill="#203562"/>
</svg>
